#!OML:ASF I:\Actors\actors\Patient Classification 2\Patient 1\Session 1\actor1.ASF
:FULLY-SPECIFIED
:DEGREES
358
root -0.504629 18.8334 5.85499 4.12391 5.25002 -2.357
lowerback 14.3063 1.10741 1.66173
upperback 0.939042 1.9818 3.26117
thorax -7.09899 0.967023 2.12602
lowerneck -0.926641 -2.43258 -3.03297
upperneck -6.3255 -3.73737 -8.61035
head -1.96627 -1.61728 -2.1756
rclavicle 2.98177e-015 3.4191e-014
rhumerus 33.0426 13.8409 -52.0091
rradius 127.712
rwrist -3.56457
rhand -34.9935 -33.1596
rfingers 7.12502
rthumb -8.1385 -62.9829
lclavicle 2.98177e-015 3.4191e-014
lhumerus -22.8998 -38.8105 89.6671
lradius 121.543
lwrist 14.8811
lhand -26.7597 -63.9978
lfingers 7.12502
lthumb -0.188039 -34.0182
rfemur 0 0 0
rtibia 0
rfoot 0 0
rtoes 0
lfemur -12.0337 -4.38121 -14.8898
ltibia 26.0379
lfoot -19.5839 8.93799
ltoes -56.1989
359
root -0.495421 18.8336 5.8522 4.17001 5.00583 -2.34526
lowerback 14.352 0.99997 1.6238
upperback 0.872484 1.84019 3.29534
thorax -7.19446 0.899719 2.21238
lowerneck -0.815064 -2.51153 -3.08738
upperneck -6.40723 -3.85512 -8.52246
head -2.01288 -1.67107 -2.13443
rclavicle 3.71727e-014 -4.77083e-015
rhumerus 32.9597 13.8461 -52.029
rradius 127.818
rwrist -3.59053
rhand -34.9197 -32.8147
rfingers 7.12502
rthumb -8.06731 -62.6407
lclavicle 3.71727e-014 -4.77083e-015
lhumerus -23.0972 -38.5346 89.7441
lradius 121.619
lwrist 14.872
lhand -26.1482 -63.418
lfingers 7.12502
lthumb 0.402604 -33.4386
rfemur 0 0 0
rtibia 0
rfoot 0 0
rtoes 0
lfemur -12.0212 -4.27507 -14.9491
ltibia 26.0108
lfoot -19.6441 9.07087
ltoes -56.1202
360
root -0.488365 18.8336 5.85214 4.19088 4.72989 -2.31452
lowerback 14.6525 0.958628 1.89588
upperback 0.583668 1.83738 3.09797
thorax -7.65754 0.883428 1.84536
lowerneck -0.469599 -2.68085 -3.14658
upperneck -6.30034 -4.07932 -8.20853
head -2.03496 -1.78473 -2.01245
rclavicle 9.93923e-016 -7.15625e-015
rhumerus 32.2847 13.7592 -52.3294
rradius 127.917
rwrist -3.47275
rhand -36.2695 -31.228
rfingers 7.12502
rthumb -9.36983 -60.9998
lclavicle 9.93923e-016 -7.15625e-015
lhumerus -23.7826 -38.7087 89.9346
lradius 121.744
lwrist 14.8756
lhand -25.9616 -63.1079
lfingers 7.12502
lthumb 0.582869 -33.1289
rfemur 0 0 0
rtibia 0
rfoot 0 0
rtoes 0
lfemur -11.9733 -4.07152 -15.0238
ltibia 25.9892
lfoot -19.6671 9.13117
ltoes -56.015
361
root -0.484297 18.8334 5.85235 4.19046 4.44345 -2.27112
lowerback 14.6137 0.928648 1.81312
upperback 0.522169 1.78263 3.07337
thorax -7.70245 0.859194 1.87796
lowerneck -0.154472 -2.78995 -3.00054
upperneck -6.42003 -4.25514 -8.20226
head -2.13935 -1.86409 -2.02973
rclavicle -5.96354e-016 -7.95139e-016
rhumerus 32.0363 13.5839 -52.4081
rradius 127.977
rwrist -3.41204
rhand -37.0782 -30.422
rfingers 7.12502
rthumb -10.15 -60.1571
lclavicle -5.96354e-016 -7.95139e-016
lhumerus -24.1239 -38.6857 90.0237
lradius 121.807
lwrist 14.873
lhand -25.9685 -63.1848
lfingers 7.12502
lthumb 0.57613 -33.2058
rfemur 0 0 0
rtibia 0
rfoot 0 0
rtoes 0
lfemur -11.9056 -3.85991 -15.1052
ltibia 25.9699
lfoot -19.6787 9.18865
ltoes -56.0541
362
root -0.480352 18.8338 5.85122 4.20471 4.21337 -2.25567
lowerback 14.2717 0.83437 1.48051
upperback 0.700121 1.59648 3.23911
thorax -7.3293 0.784881 2.28455
lowerneck -0.0614852 -2.78154 -2.83204
upperneck -6.74904 -4.28676 -8.36196
head -2.27558 -1.86534 -2.11215
rclavicle 2.44505e-014 3.18055e-014
rhumerus 32.3206 13.4426 -52.2834
rradius 128.047
rwrist -3.43179
rhand -36.8823 -30.5655
rfingers 7.12502
rthumb -9.96111 -60.3099
lclavicle 2.44505e-014 3.18055e-014
lhumerus -23.9786 -38.3169 89.9351
lradius 121.864
lwrist 14.8316
lhand -25.9113 -63.1586
lfingers 7.12502
lthumb 0.631387 -33.1798
rfemur 0 0 0
rtibia 0
rfoot 0 0
rtoes 0
lfemur -11.8735 -3.68024 -15.149
ltibia 25.9472
lfoot -19.6688 9.2566
ltoes -56.2577
